<svg aria-hidden="true" style="position: absolute; width: 0; height: 0; overflow: hidden;" version="1.1" xmlns="http://www.w3.org/2000/svg" xmlns:xlink="http://www.w3.org/1999/xlink">
<defs>
<symbol id="arrow-icon" viewBox="0 0 32 32">
<path d="M32 4.741l-4.741-4.741v23.703l-23.703-23.703-3.557 3.557 23.703 23.703h-23.703l4.741 4.741h27.259v-27.259z"></path>
</symbol>
<symbol id="basket-icon" viewBox="0 0 32 32">
<path fill="none" stroke="#141414" style="stroke: var(--color1, #141414)" stroke-linejoin="miter" stroke-linecap="butt" stroke-miterlimit="4" stroke-width="2" d="M5.114 31l-3.934-23.6h29.64l-3.934 23.6h-21.772z"></path>
<path d="M6.534 7.466c0-5.228 4.238-9.466 9.466-9.466s9.466 4.238 9.466 9.466v0h-4c0-3.019-2.447-5.466-5.466-5.466s-5.466 2.447-5.466 5.466h-4zM23.466 12.8v0zM6.534 12.8v-5.334c0-5.228 4.238-9.466 9.466-9.466v0 4c-3.019 0-5.466 2.447-5.466 5.466v0 5.334h-4zM16-2c5.228 0 9.466 4.238 9.466 9.466v0 5.334h-4v-5.334c0-3.019-2.447-5.466-5.466-5.466v-4z"></path>
</symbol>
<symbol id="facebook-icon" viewBox="0 0 32 32">
<path d="M18.24 8.771h0.611v2.291h-0.764c-0.305 0-0.611 0-0.764 0.153s-0.153 0.305-0.153 0.662v0.815h1.68v1.935h-1.68v8.4h-2.596v-8.451h-1.375v-1.935h1.375v-0.662c0-1.12 0.153-1.935 0.458-2.291 0.458-0.662 1.375-0.967 2.749-0.967 0.153 0.051 0.305 0.051 0.458 0.051z"></path>
<path fill="none" stroke="#141414" style="stroke: var(--color1, #141414)" stroke-linejoin="miter" stroke-linecap="butt" stroke-miterlimit="4" stroke-width="0.7273" d="M7.273 0.364h17.455c3.816 0 6.909 3.093 6.909 6.909v17.455c0 3.816-3.093 6.909-6.909 6.909h-17.455c-3.816 0-6.909-3.093-6.909-6.909v-17.455c0-3.816 3.093-6.909 6.909-6.909z"></path>
</symbol>
<symbol id="instagram-icon" viewBox="0 0 32 32">
<path d="M24.093 12.663c-0.010-0.722-0.148-1.408-0.393-2.042l0.014 0.040c-0.434-1.096-1.286-1.946-2.354-2.368l-0.028-0.010c-0.586-0.226-1.263-0.364-1.971-0.38l-0.006-0c-0.87-0.039-1.146-0.049-3.355-0.049s-2.492 0-3.356 0.049c-0.676 0.015-1.344 0.142-1.977 0.38-1.097 0.432-1.949 1.283-2.372 2.35l-0.010 0.028c-0.227 0.585-0.365 1.261-0.379 1.967l-0 0.006c-0.039 0.87-0.051 1.145-0.051 3.351s0 2.487 0.051 3.351c0.014 0.713 0.152 1.39 0.392 2.016l-0.014-0.041c0.434 1.095 1.286 1.946 2.355 2.368l0.028 0.010c0.584 0.235 1.26 0.382 1.967 0.406l0.010 0c0.871 0.039 1.147 0.051 3.356 0.051s2.492 0 3.356-0.051c0.714-0.014 1.392-0.152 2.018-0.392l-0.041 0.014c1.096-0.432 1.948-1.283 2.372-2.35l0.010-0.028c0.238-0.632 0.366-1.298 0.379-1.975 0.039-0.869 0.051-1.145 0.051-3.351-0.001-2.205-0.001-2.485-0.052-3.349zM15.993 20.156c-0.001 0-0.003 0-0.004 0-2.306 0-4.176-1.869-4.177-4.175v-0c0.002-2.306 1.872-4.175 4.178-4.175 0.001 0 0.003 0 0.004 0h-0c2.309 0 4.182 1.869 4.182 4.175-0.002 2.306-1.872 4.175-4.179 4.175-0.001 0-0.002 0-0.003 0h0zM20.342 12.625c-0.538 0-0.973-0.436-0.973-0.973s0.436-0.973 0.973-0.973v0c0.008-0 0.017-0 0.027-0 0.538 0 0.974 0.436 0.974 0.974s-0.436 0.974-0.974 0.974c-0.009 0-0.019-0-0.028-0l0.001 0z"></path>
<path d="M15.995 18.53c1.407 0 2.548-1.141 2.548-2.548s-1.141-2.548-2.548-2.548v0c-1.407 0-2.548 1.141-2.548 2.548s1.141 2.548 2.548 2.548v0z"></path>
<path fill="none" stroke="#141414" style="stroke: var(--color1, #141414)" stroke-linejoin="miter" stroke-linecap="butt" stroke-miterlimit="4" stroke-width="0.7273" d="M7.273 0.364h17.455c3.816 0 6.909 3.093 6.909 6.909v17.455c0 3.816-3.093 6.909-6.909 6.909h-17.455c-3.816 0-6.909-3.093-6.909-6.909v-17.455c0-3.816 3.093-6.909 6.909-6.909z"></path>
</symbol>
<symbol id="logo-icon" viewBox="0 0 210 32">
<path fill="#77ac63" style="fill: var(--color2, #77ac63)" d="M25.851 2.057h-3.564c-0.005-0-0.012-0-0.018-0-1.082 0-1.961 0.871-1.973 1.951v3.493c0.012 1.081 0.891 1.952 1.973 1.952 0.006 0 0.013-0 0.019-0h3.563c0.005 0 0.012 0 0.018 0 1.082 0 1.961-0.871 1.973-1.951v-3.493c-0.012-1.081-0.891-1.952-1.973-1.952-0.006 0-0.013 0-0.019 0h0.001zM5.982 22.258h-3.838c-1.184 0-2.144 0.875-2.144 1.952v3.492c0 1.079 0.96 1.952 2.144 1.952h3.84c1.182 0 2.142-0.873 2.142-1.952v-3.492c0-1.079-0.96-1.952-2.144-1.952zM5.556 12.071h-3.564c-1.1 0-1.991 0.876-1.991 1.956v3.492c0.012 1.081 0.891 1.952 1.973 1.952 0.006 0 0.013-0 0.019-0h3.563c1.099 0 1.991-0.875 1.991-1.952v-3.492c0-1.079-0.892-1.952-1.991-1.952zM15.792 22.204h-3.564c-1.099 0-1.991 0.871-1.991 1.95v3.492c0.012 1.081 0.891 1.952 1.973 1.952 0.006 0 0.013-0 0.019-0h3.563c0.005 0 0.012 0 0.018 0 1.082 0 1.961-0.871 1.973-1.951v-3.493c-0.012-1.081-0.891-1.952-1.973-1.952-0.006 0-0.013 0-0.019 0h0.001zM5.556 1.854h-3.564c-1.1 0-1.991 0.875-1.991 1.952v3.492c0.012 1.081 0.891 1.952 1.973 1.952 0.006 0 0.013-0 0.019-0h3.563c0.005 0 0.012 0 0.018 0 1.082 0 1.961-0.871 1.973-1.951v-3.493c0-1.077-0.892-1.952-1.991-1.952zM16.068 12.176h-3.564c-1.099 0-1.991 0.873-1.991 1.95v3.493c0.012 1.081 0.891 1.952 1.973 1.952 0.006 0 0.013-0 0.019-0h3.563c1.1 0 1.991-0.875 1.991-1.952v-3.493c0-1.077-0.891-1.95-1.991-1.95zM26.075 22.204h-3.564c-1.1 0-1.991 0.871-1.991 1.95v3.492c0.012 1.081 0.891 1.952 1.973 1.952 0.006 0 0.013-0 0.019-0h3.563c0.005 0 0.012 0 0.018 0 1.082 0 1.961-0.871 1.973-1.951v-3.493c0-1.079-0.892-1.952-1.991-1.952zM15.636 1.977h-3.563c-1.1 0-1.991 0.873-1.991 1.952v3.492c0.012 1.081 0.891 1.952 1.973 1.952 0.006 0 0.013-0 0.019-0h3.562c0.005 0 0.012 0 0.018 0 1.082 0 1.961-0.871 1.973-1.951v-3.493c0-1.079-0.891-1.952-1.991-1.952zM25.817 12.379h-3.564c-1.099 0-1.991 0.873-1.991 1.952v3.492c0.012 1.081 0.891 1.952 1.973 1.952 0.006 0 0.013-0 0.019-0h3.563c1.099 0 1.991-0.873 1.991-1.952v-3.492c0-1.079-0.892-1.952-1.991-1.952z"></path>
<path fill="#141414" style="fill: var(--color1, #141414)" d="M50.116 24.889l-6.37-17.422h3.41l4.928 14.162 4.953-14.162h3.36l-6.372 17.422h-3.909zM61.472 24.889v-17.422h11.374v2.564h-8.188v4.779h7.442v2.489h-7.442v5.028h8.188v2.564h-11.374zM82.48 25.188c-1.643 0-3.076-0.373-4.306-1.12-1.227-0.755-2.204-1.811-2.842-3.068l-0.020-0.043c-0.679-1.344-1.020-2.903-1.020-4.679 0-1.792 0.35-3.369 1.045-4.729 0.692-1.349 1.72-2.441 2.976-3.191l0.036-0.020c1.312-0.78 2.862-1.17 4.656-1.17 2.041 0 3.733 0.489 5.076 1.468 1.344 0.978 2.215 2.331 2.613 4.057h-3.559c-0.251-0.797-0.76-1.453-1.428-1.883l-0.014-0.008c-0.697-0.464-1.593-0.697-2.688-0.697-1.742 0-3.086 0.556-4.032 1.668-0.946 1.095-1.419 2.604-1.419 4.53s0.462 3.419 1.392 4.48c0.948 1.045 2.224 1.568 3.835 1.568 1.575 0 2.761-0.423 3.559-1.269 0.812-0.862 1.301-1.991 1.467-3.385h-4.404v-2.389h7.614v9.582h-2.937l-0.249-2.29c-0.54 0.803-1.251 1.45-2.085 1.901l-0.031 0.015c-0.846 0.448-1.924 0.672-3.236 0.672zM100.736 25.188c-1.643 0-3.079-0.373-4.306-1.12-1.227-0.755-2.204-1.811-2.842-3.068l-0.020-0.043c-0.681-1.344-1.020-2.903-1.020-4.679 0-1.792 0.348-3.369 1.045-4.729 0.692-1.349 1.72-2.441 2.976-3.191l0.036-0.020c1.31-0.78 2.862-1.17 4.654-1.17 2.041 0 3.733 0.489 5.077 1.468 1.344 0.978 2.215 2.331 2.613 4.057h-3.559c-0.252-0.798-0.762-1.453-1.43-1.883l-0.014-0.008c-0.697-0.464-1.593-0.697-2.688-0.697-1.742 0-3.086 0.556-4.032 1.668-0.946 1.095-1.419 2.604-1.419 4.53s0.462 3.419 1.394 4.48c0.946 1.045 2.222 1.568 3.833 1.568 1.575 0 2.763-0.423 3.559-1.269 0.812-0.862 1.301-1.991 1.468-3.385h-4.405v-2.389h7.616v9.582h-2.937l-0.249-2.29c-0.54 0.803-1.251 1.45-2.085 1.901l-0.031 0.015c-0.846 0.448-1.925 0.672-3.236 0.672zM111.374 24.889v-17.422h3.186v17.422h-3.186zM116.94 24.889v-17.422h11.374v2.564h-8.188v4.779h7.442v2.489h-7.442v5.028h8.188v2.564h-11.372zM130.334 24.889v-17.422h6.994c1.808 0 3.186 0.423 4.132 1.269 0.962 0.83 1.444 1.9 1.444 3.211 0 1.095-0.299 1.973-0.896 2.638-0.557 0.624-1.285 1.086-2.11 1.312l-0.031 0.007c0.996 0.199 1.817 0.697 2.464 1.493 0.647 0.78 0.971 1.692 0.971 2.738 0 1.378-0.498 2.514-1.493 3.41s-2.405 1.344-4.231 1.344h-7.243zM133.52 14.784h3.335c0.896 0 1.584-0.208 2.066-0.622 0.48-0.414 0.722-1.004 0.722-1.767 0-0.729-0.24-1.303-0.722-1.717-0.464-0.432-1.17-0.647-2.116-0.647h-3.285v4.754zM133.52 22.3h3.559c0.946 0 1.676-0.215 2.19-0.647 0.532-0.448 0.796-1.070 0.796-1.867 0-0.812-0.274-1.452-0.821-1.916s-1.285-0.697-2.215-0.697h-3.509v5.127zM153.204 25.188c-1.742 0-3.269-0.382-4.58-1.145-1.292-0.768-2.331-1.839-3.040-3.119l-0.022-0.042c-0.729-1.36-1.095-2.928-1.095-4.704s0.364-3.335 1.095-4.679c0.725-1.333 1.764-2.413 3.022-3.165l0.037-0.021c1.31-0.764 2.837-1.145 4.58-1.145 1.724 0 3.244 0.382 4.555 1.145 1.304 0.763 2.346 1.846 3.040 3.143l0.021 0.043c0.729 1.344 1.095 2.903 1.095 4.679s-0.364 3.342-1.095 4.704c-0.72 1.329-1.762 2.402-3.023 3.14l-0.038 0.020c-1.31 0.764-2.828 1.145-4.555 1.145zM153.204 22.325c1.659 0 2.978-0.548 3.957-1.643 0.996-1.095 1.493-2.596 1.493-4.505 0-1.908-0.498-3.41-1.493-4.505-0.978-1.095-2.299-1.643-3.957-1.643s-2.987 0.548-3.982 1.643c-0.996 1.095-1.493 2.596-1.493 4.505 0 1.908 0.498 3.41 1.493 4.505s2.324 1.643 3.982 1.643zM171.895 25.188c-1.742 0-3.268-0.382-4.58-1.145-1.292-0.768-2.331-1.839-3.040-3.119l-0.022-0.042c-0.729-1.36-1.095-2.928-1.095-4.704s0.366-3.335 1.095-4.679c0.725-1.333 1.765-2.413 3.024-3.165l0.037-0.021c1.312-0.764 2.837-1.145 4.58-1.145 1.724 0 3.244 0.382 4.555 1.145 1.303 0.764 2.346 1.846 3.040 3.143l0.021 0.043c0.731 1.344 1.095 2.903 1.095 4.679s-0.364 3.342-1.095 4.704c-0.721 1.328-1.762 2.402-3.023 3.14l-0.038 0.020c-1.31 0.764-2.828 1.145-4.555 1.145zM171.895 22.325c1.659 0 2.978-0.548 3.957-1.643 0.996-1.095 1.493-2.596 1.493-4.505 0-1.908-0.498-3.41-1.493-4.505-0.978-1.095-2.299-1.643-3.957-1.643s-2.987 0.548-3.982 1.643c-0.996 1.095-1.493 2.596-1.493 4.505 0 1.908 0.498 3.41 1.493 4.505s2.324 1.643 3.982 1.643zM188.372 25.188c-1.276 0-2.405-0.215-3.385-0.647-0.947-0.423-1.729-1.069-2.303-1.874l-0.012-0.017c-0.564-0.83-0.853-1.833-0.871-3.012h3.36c0.034 0.812 0.324 1.502 0.871 2.066 0.565 0.548 1.337 0.821 2.315 0.821 0.846 0 1.518-0.199 2.016-0.597 0.498-0.414 0.747-0.962 0.747-1.643 0-0.713-0.224-1.269-0.672-1.668-0.43-0.398-1.012-0.722-1.742-0.971l-2.34-0.796c-1.344-0.464-2.372-1.061-3.086-1.792-0.697-0.729-1.045-1.701-1.045-2.912-0.016-1.029 0.224-1.908 0.722-2.638 0.525-0.748 1.233-1.336 2.059-1.705l0.032-0.013c0.88-0.414 1.892-0.622 3.036-0.622 1.163 0 2.183 0.208 3.061 0.622 0.896 0.414 1.593 0.996 2.091 1.742 0.516 0.747 0.789 1.636 0.821 2.663h-3.41c-0.017-0.638-0.29-1.21-0.721-1.617l-0.001-0.001c-0.448-0.48-1.077-0.722-1.892-0.722-0.697-0.018-1.285 0.158-1.767 0.523-0.464 0.348-0.697 0.862-0.697 1.543 0 0.581 0.183 1.045 0.548 1.394 0.366 0.332 0.864 0.613 1.493 0.846 0.631 0.231 1.353 0.48 2.165 0.747 0.864 0.299 1.652 0.647 2.364 1.045 0.715 0.398 1.287 0.93 1.717 1.593 0.432 0.647 0.647 1.484 0.647 2.514 0 0.912-0.231 1.76-0.697 2.539-0.464 0.78-1.152 1.41-2.066 1.892-0.912 0.464-2.032 0.697-3.36 0.697zM200.117 24.889v-14.859h-5.077v-2.564h13.365v2.564h-5.102v14.859h-3.186z"></path>
</symbol>
<symbol id="youtube-icon" viewBox="0 0 32 32">
<path d="M21.244 9.636c-0.865-0.051-2.647-0.102-5.345-0.102h-0.356c-2.596 0-4.327 0.051-5.193 0.153-1.171 0.102-1.985 0.407-2.444 0.815-0.407 0.356-0.713 1.018-0.815 1.884-0.051 0.56-0.102 1.731-0.102 3.513v0.255c0 1.68 0.051 2.851 0.153 3.411 0.153 0.815 0.407 1.425 0.916 1.782 0.509 0.407 1.375 0.662 2.596 0.764 0.865 0.051 2.647 0.102 5.345 0.102h0.356c2.596 0 4.327-0.051 5.193-0.153 1.171-0.102 1.985-0.407 2.444-0.815 0.407-0.356 0.713-1.018 0.815-1.884 0.051-0.56 0.102-1.731 0.102-3.513v-0.255c0-1.68-0.051-2.851-0.153-3.411-0.153-0.815-0.407-1.425-0.916-1.782-0.509-0.407-1.375-0.662-2.596-0.764zM19.258 15.898l-5.6 3.36v-6.72l5.6 3.36z"></path>
<path fill="none" stroke="#141414" style="stroke: var(--color1, #141414)" stroke-linejoin="miter" stroke-linecap="butt" stroke-miterlimit="4" stroke-width="0.7273" d="M7.273 0.364h17.455c3.816 0 6.909 3.093 6.909 6.909v17.455c0 3.816-3.093 6.909-6.909 6.909h-17.455c-3.816 0-6.909-3.093-6.909-6.909v-17.455c0-3.816 3.093-6.909 6.909-6.909z"></path>
</symbol>
<symbol id="close-icon" viewBox="0 0 32 32">
<path stroke-linejoin="round" stroke-linecap="round" stroke-miterlimit="4" stroke-width="3.4286" d="M24 8l-16 16M8 8l16 16"></path>
</symbol>
<symbol id="checkbox-active-icon" viewBox="0 0 32 32">
<path fill="#a1c487" style="fill: var(--color1, #a1c487)" d="M26.152 1.404c0.586-0.829 1.541-1.363 2.62-1.363 1.767 0 3.2 1.433 3.2 3.2 0 0.653-0.196 1.26-0.531 1.767l0.007-0.012-17.356 25.6c-0.584 0.852-1.551 1.403-2.648 1.403s-2.064-0.552-2.641-1.392l-0.007-0.011-8.244-12.16c-0.363-0.512-0.58-1.149-0.58-1.837 0-1.767 1.433-3.2 3.2-3.2 1.114 0 2.096 0.57 2.669 1.433l0.007 0.012 5.596 8.252 14.708-21.692z"></path>
</symbol>
<symbol id="logo-cubes-icon" viewBox="0 0 32 32">
<path fill="#77ac63" style="fill: var(--color1, #77ac63)" d="M29.082 0.314h-4.010c-0.006-0-0.013-0-0.020-0-1.218 0-2.206 0.98-2.22 2.195v3.929c0.014 1.216 1.002 2.196 2.22 2.196 0.007 0 0.014-0 0.021-0h4.009c0.006 0 0.013 0 0.020 0 1.218 0 2.206-0.98 2.22-2.195v-3.929c-0.014-1.216-1.002-2.196-2.22-2.196-0.007 0-0.014 0-0.021 0h0.001zM6.73 23.040h-4.318c-1.332 0-2.412 0.984-2.412 2.196v3.928c0 1.214 1.080 2.196 2.412 2.196h4.32c1.33 0 2.41-0.982 2.41-2.196v-3.928c0-1.214-1.080-2.196-2.412-2.196zM6.25 11.58h-4.010c-0.006-0-0.013-0-0.020-0-1.219 0-2.209 0.983-2.22 2.199v3.929c0.013 1.216 1.002 2.196 2.22 2.196 0.007 0 0.014-0 0.021-0h4.009c0.006 0 0.013 0 0.020 0 1.218 0 2.206-0.98 2.22-2.195v-3.929c-0.014-1.216-1.002-2.196-2.22-2.196-0.007 0-0.014 0-0.021 0h0.001zM17.766 22.98h-4.010c-1.236 0-2.24 0.98-2.24 2.194v3.928c0.014 1.216 1.002 2.196 2.22 2.196 0.007 0 0.014-0 0.021-0h4.009c0.006 0 0.013 0 0.020 0 1.218 0 2.206-0.98 2.22-2.195v-3.929c-0.014-1.216-1.002-2.196-2.22-2.196-0.007 0-0.014 0-0.021 0h0.001zM6.25 0.086h-4.010c-0.006-0-0.013-0-0.020-0-1.218 0-2.206 0.98-2.22 2.195v3.929c0.013 1.216 1.002 2.196 2.22 2.196 0.007 0 0.014-0 0.021-0h4.009c0.006 0 0.013 0 0.020 0 1.218 0 2.206-0.98 2.22-2.195v-3.929c-0.014-1.216-1.002-2.196-2.22-2.196-0.007 0-0.014 0-0.021 0h0.001zM18.076 11.698h-4.010c-1.236 0-2.24 0.982-2.24 2.194v3.93c0.014 1.216 1.002 2.196 2.22 2.196 0.007 0 0.014-0 0.021-0h4.009c0.006 0 0.013 0 0.020 0 1.218 0 2.206-0.98 2.22-2.195v-3.931c0-1.212-1.002-2.194-2.24-2.194zM29.334 22.98h-4.010c-1.238 0-2.24 0.98-2.24 2.194v3.928c0.014 1.216 1.002 2.196 2.22 2.196 0.007 0 0.014-0 0.021-0h4.009c0.006 0 0.013 0 0.020 0 1.218 0 2.206-0.98 2.22-2.195v-3.929c-0.014-1.216-1.002-2.196-2.22-2.196-0.007 0-0.014 0-0.021 0h0.001zM17.59 0.224h-4.008c-1.238 0-2.24 0.982-2.24 2.196v3.928c0.014 1.216 1.002 2.196 2.22 2.196 0.007 0 0.014-0 0.021-0h4.007c0.006 0 0.013 0 0.020 0 1.218 0 2.206-0.98 2.22-2.195v-3.929c0-1.214-1.002-2.196-2.24-2.196zM29.044 11.926h-4.010c-0.006-0-0.013-0-0.020-0-1.218 0-2.206 0.98-2.22 2.195v3.929c0.014 1.216 1.002 2.196 2.22 2.196 0.007 0 0.014-0 0.021-0h4.009c0.006 0 0.013 0 0.020 0 1.218 0 2.206-0.98 2.22-2.195v-3.929c-0.014-1.216-1.002-2.196-2.22-2.196-0.007 0-0.014 0-0.021 0h0.001z"></path>
</symbol>
<symbol id="shopping-cart-icon" viewBox="0 0 32 32">
<path stroke-linejoin="round" stroke-linecap="round" stroke-miterlimit="4" stroke-width="2.6667" d="M13.333 28c0 0.736-0.597 1.333-1.333 1.333s-1.333-0.597-1.333-1.333c0-0.736 0.597-1.333 1.333-1.333s1.333 0.597 1.333 1.333z"></path>
<path stroke-linejoin="round" stroke-linecap="round" stroke-miterlimit="4" stroke-width="2.6667" d="M28 28c0 0.736-0.597 1.333-1.333 1.333s-1.333-0.597-1.333-1.333c0-0.736 0.597-1.333 1.333-1.333s1.333 0.597 1.333 1.333z"></path>
<path stroke-linejoin="round" stroke-linecap="round" stroke-miterlimit="4" stroke-width="2.6667" d="M1.333 1.333h5.333l3.573 17.853c0.251 1.233 1.327 2.147 2.616 2.147 0.018 0 0.036-0 0.054-0.001l-0.003 0h12.96c0.015 0 0.033 0 0.051 0 1.289 0 2.364-0.914 2.613-2.13l0.003-0.017 2.133-11.187h-22.667"></path>
</symbol>
<symbol id="mobile-burger-icon" viewBox="0 0 32 32">
<path fill="#77ac63" style="fill: var(--color1, #77ac63)" d="M2.667 7.993c0-0.733 0.595-1.327 1.327-1.327h10.68c0.733 0 1.327 0.594 1.327 1.327s-0.594 1.327-1.327 1.327h-10.68c-0.733 0-1.327-0.594-1.327-1.327v0zM2.667 16c0-0.733 0.595-1.327 1.327-1.327h24.013c0.733 0 1.327 0.594 1.327 1.327s-0.594 1.327-1.327 1.327h-24.013c-0.733 0-1.327-0.594-1.327-1.327v0zM3.993 22.68c-0.733 0-1.327 0.594-1.327 1.327s0.594 1.327 1.327 1.327h16.013c0.733 0 1.327-0.594 1.327-1.327s-0.594-1.327-1.327-1.327h-16.013z"></path>
</symbol>
<symbol id="logo-cubes-black-icon" viewBox="0 0 34 32">
<path d="M30.082 0.314h-4.010c-0.006-0-0.013-0-0.020-0-1.218 0-2.206 0.98-2.22 2.195v3.929c0.014 1.216 1.002 2.196 2.22 2.196 0.007 0 0.014-0 0.021-0h4.009c0.006 0 0.013 0 0.020 0 1.218 0 2.206-0.98 2.22-2.195v-3.929c-0.014-1.216-1.002-2.196-2.22-2.196-0.007 0-0.014 0-0.021 0h0.001zM7.73 23.040h-4.318c-1.332 0-2.412 0.984-2.412 2.196v3.928c0 1.214 1.080 2.196 2.412 2.196h4.32c1.33 0 2.41-0.982 2.41-2.196v-3.928c0-1.214-1.080-2.196-2.412-2.196zM7.25 11.58h-4.010c-0.006-0-0.013-0-0.020-0-1.219 0-2.209 0.983-2.22 2.199v3.929c0.014 1.216 1.002 2.196 2.22 2.196 0.007 0 0.014-0 0.021-0h4.009c0.006 0 0.013 0 0.020 0 1.218 0 2.206-0.98 2.22-2.195v-3.929c-0.014-1.216-1.002-2.196-2.22-2.196-0.007 0-0.014 0-0.021 0h0.001zM18.766 22.98h-4.010c-1.236 0-2.24 0.98-2.24 2.194v3.928c0.014 1.216 1.002 2.196 2.22 2.196 0.007 0 0.014-0 0.021-0h4.009c0.006 0 0.013 0 0.020 0 1.218 0 2.206-0.98 2.22-2.195v-3.929c-0.014-1.216-1.002-2.196-2.22-2.196-0.007 0-0.014 0-0.021 0h0.001zM7.25 0.086h-4.010c-0.006-0-0.013-0-0.020-0-1.218 0-2.206 0.98-2.22 2.195v3.929c0.014 1.216 1.002 2.196 2.22 2.196 0.007 0 0.014-0 0.021-0h4.009c0.006 0 0.013 0 0.020 0 1.218 0 2.206-0.98 2.22-2.195v-3.929c-0.014-1.216-1.002-2.196-2.22-2.196-0.007 0-0.014 0-0.021 0h0.001zM19.076 11.698h-4.010c-1.236 0-2.24 0.982-2.24 2.194v3.93c0.014 1.216 1.002 2.196 2.22 2.196 0.007 0 0.014-0 0.021-0h4.009c0.006 0 0.013 0 0.020 0 1.218 0 2.206-0.98 2.22-2.195v-3.931c0-1.212-1.002-2.194-2.24-2.194zM30.334 22.98h-4.010c-1.238 0-2.24 0.98-2.24 2.194v3.928c0.014 1.216 1.002 2.196 2.22 2.196 0.007 0 0.014-0 0.021-0h4.009c0.006 0 0.013 0 0.020 0 1.218 0 2.206-0.98 2.22-2.195v-3.929c-0.014-1.216-1.002-2.196-2.22-2.196-0.007 0-0.014 0-0.021 0h0.001zM18.59 0.224h-4.008c-1.238 0-2.24 0.982-2.24 2.196v3.928c0.014 1.216 1.002 2.196 2.22 2.196 0.007 0 0.014-0 0.021-0h4.007c0.006 0 0.013 0 0.020 0 1.218 0 2.206-0.98 2.22-2.195v-3.929c0-1.214-1.002-2.196-2.24-2.196zM30.044 11.926h-4.010c-0.006-0-0.013-0-0.020-0-1.218 0-2.206 0.98-2.22 2.195v3.929c0.014 1.216 1.002 2.196 2.22 2.196 0.007 0 0.014-0 0.021-0h4.009c0.006 0 0.013 0 0.020 0 1.218 0 2.206-0.98 2.22-2.195v-3.929c-0.014-1.216-1.002-2.196-2.22-2.196-0.007 0-0.014 0-0.021 0h0.001z"></path>
<symbol id="go-top-icon" viewBox="0 0 30 32">
<path fill="#fff" style="fill: var(--color1, #fff)" d="M0.955 15.198v0.177c0 1.501 1.814 2.252 2.875 1.191l6.6-6.6c1.061-1.061 2.875-0.308 2.875 1.192v18.949c0 0.93 0.754 1.684 1.684 1.684v0h0.337c0.93 0 1.684-0.754 1.684-1.684v0-18.949c0-1.501 1.814-2.253 2.875-1.192l6.6 6.602c1.061 1.061 2.875 0.308 2.875-1.192v-0.177c-0-0.465-0.189-0.886-0.493-1.191l-12.519-12.519c-0.305-0.305-0.726-0.493-1.191-0.493s-0.886 0.188-1.191 0.493l-12.519 12.519c-0.305 0.305-0.493 0.726-0.493 1.191v0z"></path>
</symbol>

</defs>
</svg>